<mxfile host="app.diagrams.net" modified="2021-05-10T00:50:47.729Z" agent="5.0 (Macintosh; Intel Mac OS X 10_15_7) AppleWebKit/537.36 (KHTML, like Gecko) Chrome/90.0.4430.93 Safari/537.36" etag="DcqboHSWKjaLoQuz26uL" version="14.6.6" type="github" pages="3">
  <diagram id="JoMTXiHfOhuPp_pBb8iJ" name="第 1 页">
    <mxGraphModel dx="1426" dy="711" grid="1" gridSize="10" guides="1" tooltips="1" connect="1" arrows="1" fold="1" page="1" pageScale="1" pageWidth="600" pageHeight="600" math="0" shadow="0">
      <root>
        <mxCell id="0" />
        <mxCell id="1" parent="0" />
        <mxCell id="F1QFF-NNQ-U6RUkxFtT4-1" value="JS Bundle" style="rounded=0;whiteSpace=wrap;html=1;fillColor=#006D77;fontColor=#FFFFFF;" parent="1" vertex="1">
          <mxGeometry x="80" y="40" width="120" height="60" as="geometry" />
        </mxCell>
        <mxCell id="F1QFF-NNQ-U6RUkxFtT4-2" value="RN Bundle" style="whiteSpace=wrap;html=1;fillColor=#006D77;fontColor=#FFFFFF;" parent="1" vertex="1">
          <mxGeometry x="240" y="40" width="120" height="60" as="geometry" />
        </mxCell>
        <mxCell id="F1QFF-NNQ-U6RUkxFtT4-3" value="Hybrid-box" style="whiteSpace=wrap;html=1;fillColor=#EDF6F9;" parent="1" vertex="1">
          <mxGeometry x="80" y="200" width="120" height="60" as="geometry" />
        </mxCell>
        <mxCell id="F1QFF-NNQ-U6RUkxFtT4-4" value="RN-box" style="whiteSpace=wrap;html=1;fillColor=#EDF6F9;" parent="1" vertex="1">
          <mxGeometry x="240" y="200" width="120" height="60" as="geometry" />
        </mxCell>
        <mxCell id="F1QFF-NNQ-U6RUkxFtT4-5" value="Flutter-box" style="whiteSpace=wrap;html=1;fillColor=#EDF6F9;" parent="1" vertex="1">
          <mxGeometry x="400" y="200" width="120" height="60" as="geometry" />
        </mxCell>
        <mxCell id="F1QFF-NNQ-U6RUkxFtT4-6" value="基建API" style="whiteSpace=wrap;html=1;fillColor=#E29578;fontSize=16;" parent="1" vertex="1">
          <mxGeometry x="80" y="480" width="440" height="60" as="geometry" />
        </mxCell>
        <mxCell id="F1QFF-NNQ-U6RUkxFtT4-7" value="bridge-native" style="whiteSpace=wrap;html=1;fillColor=#FFDDD2;fontSize=16;" parent="1" vertex="1">
          <mxGeometry x="80" y="340" width="440" height="60" as="geometry" />
        </mxCell>
        <mxCell id="F1QFF-NNQ-U6RUkxFtT4-8" value="微容器入口协议" style="whiteSpace=wrap;html=1;fillColor=#83C5BE;fontSize=15;" parent="1" vertex="1">
          <mxGeometry x="80" y="120" width="440" height="60" as="geometry" />
        </mxCell>
        <mxCell id="F1QFF-NNQ-U6RUkxFtT4-9" value="Flutter Bundle" style="whiteSpace=wrap;html=1;fillColor=#006D77;fontColor=#FFFFFF;" parent="1" vertex="1">
          <mxGeometry x="400" y="40" width="120" height="60" as="geometry" />
        </mxCell>
        <mxCell id="F1QFF-NNQ-U6RUkxFtT4-12" value="" style="shape=flexArrow;endArrow=classic;startArrow=classic;html=1;fontColor=#FFFFFF;" parent="1" edge="1">
          <mxGeometry width="50" height="50" relative="1" as="geometry">
            <mxPoint x="299" y="340" as="sourcePoint" />
            <mxPoint x="299" y="260" as="targetPoint" />
          </mxGeometry>
        </mxCell>
        <mxCell id="F1QFF-NNQ-U6RUkxFtT4-13" value="" style="shape=flexArrow;endArrow=classic;startArrow=classic;html=1;fontColor=#FFFFFF;" parent="1" edge="1">
          <mxGeometry width="50" height="50" relative="1" as="geometry">
            <mxPoint x="459.5" y="340" as="sourcePoint" />
            <mxPoint x="459.5" y="260" as="targetPoint" />
          </mxGeometry>
        </mxCell>
        <mxCell id="F1QFF-NNQ-U6RUkxFtT4-14" value="" style="shape=flexArrow;endArrow=classic;startArrow=classic;html=1;fontColor=#FFFFFF;" parent="1" edge="1">
          <mxGeometry width="50" height="50" relative="1" as="geometry">
            <mxPoint x="299" y="480" as="sourcePoint" />
            <mxPoint x="299" y="400" as="targetPoint" />
          </mxGeometry>
        </mxCell>
        <mxCell id="F1QFF-NNQ-U6RUkxFtT4-15" value="" style="shape=flexArrow;endArrow=classic;startArrow=classic;html=1;fontColor=#FFFFFF;" parent="1" edge="1">
          <mxGeometry width="50" height="50" relative="1" as="geometry">
            <mxPoint x="139.5" y="340" as="sourcePoint" />
            <mxPoint x="139.5" y="260" as="targetPoint" />
          </mxGeometry>
        </mxCell>
        <mxCell id="F1QFF-NNQ-U6RUkxFtT4-16" value="bridge-js" style="text;html=1;align=center;verticalAlign=middle;resizable=0;points=[];autosize=1;" parent="1" vertex="1">
          <mxGeometry x="140" y="290" width="60" height="20" as="geometry" />
        </mxCell>
        <mxCell id="F1QFF-NNQ-U6RUkxFtT4-17" value="bridge-RN" style="text;html=1;align=center;verticalAlign=middle;resizable=0;points=[];autosize=1;fontColor=#000000;" parent="1" vertex="1">
          <mxGeometry x="300" y="290" width="70" height="20" as="geometry" />
        </mxCell>
        <mxCell id="F1QFF-NNQ-U6RUkxFtT4-18" value="bridge-flutter" style="text;html=1;align=center;verticalAlign=middle;resizable=0;points=[];autosize=1;fontColor=#000000;" parent="1" vertex="1">
          <mxGeometry x="467" y="290" width="80" height="20" as="geometry" />
        </mxCell>
        <mxCell id="F1QFF-NNQ-U6RUkxFtT4-19" value="runtime/java 反射" style="text;html=1;align=center;verticalAlign=middle;resizable=0;points=[];autosize=1;fontColor=#000000;" parent="1" vertex="1">
          <mxGeometry x="300" y="430" width="110" height="20" as="geometry" />
        </mxCell>
      </root>
    </mxGraphModel>
  </diagram>
  <diagram id="q3KZjr_6w5b44Eu47zJ1" name="第 2 页">
    <mxGraphModel dx="1426" dy="711" grid="1" gridSize="10" guides="1" tooltips="1" connect="1" arrows="1" fold="1" page="1" pageScale="1" pageWidth="600" pageHeight="600" math="0" shadow="0">
      <root>
        <mxCell id="x9FaRGgshdTX-bnKY5PL-0" />
        <mxCell id="x9FaRGgshdTX-bnKY5PL-1" parent="x9FaRGgshdTX-bnKY5PL-0" />
        <mxCell id="8KJiEk0ww90a6QA8ULXF-0" value="JS Bundle" style="rounded=0;whiteSpace=wrap;html=1;fillColor=#006D77;fontColor=#FFFFFF;" vertex="1" parent="x9FaRGgshdTX-bnKY5PL-1">
          <mxGeometry x="70" y="40" width="120" height="60" as="geometry" />
        </mxCell>
        <mxCell id="8KJiEk0ww90a6QA8ULXF-1" value="RN Bundle" style="whiteSpace=wrap;html=1;fillColor=#006D77;fontColor=#FFFFFF;" vertex="1" parent="x9FaRGgshdTX-bnKY5PL-1">
          <mxGeometry x="230" y="40" width="120" height="60" as="geometry" />
        </mxCell>
        <mxCell id="8KJiEk0ww90a6QA8ULXF-2" value="Hybrid-box" style="whiteSpace=wrap;html=1;fillColor=#EDF6F9;" vertex="1" parent="x9FaRGgshdTX-bnKY5PL-1">
          <mxGeometry x="70" y="200" width="120" height="60" as="geometry" />
        </mxCell>
        <mxCell id="8KJiEk0ww90a6QA8ULXF-3" value="RN-box" style="whiteSpace=wrap;html=1;fillColor=#EDF6F9;" vertex="1" parent="x9FaRGgshdTX-bnKY5PL-1">
          <mxGeometry x="230" y="200" width="120" height="60" as="geometry" />
        </mxCell>
        <mxCell id="8KJiEk0ww90a6QA8ULXF-4" value="Flutter-box" style="whiteSpace=wrap;html=1;fillColor=#EDF6F9;" vertex="1" parent="x9FaRGgshdTX-bnKY5PL-1">
          <mxGeometry x="390" y="200" width="120" height="60" as="geometry" />
        </mxCell>
        <mxCell id="8KJiEk0ww90a6QA8ULXF-5" value="基建API" style="whiteSpace=wrap;html=1;fillColor=#E29578;fontSize=16;" vertex="1" parent="x9FaRGgshdTX-bnKY5PL-1">
          <mxGeometry x="70" y="470" width="440" height="60" as="geometry" />
        </mxCell>
        <mxCell id="8KJiEk0ww90a6QA8ULXF-7" value="微容器入口协议" style="whiteSpace=wrap;html=1;fillColor=#83C5BE;fontSize=15;" vertex="1" parent="x9FaRGgshdTX-bnKY5PL-1">
          <mxGeometry x="70" y="120" width="440" height="60" as="geometry" />
        </mxCell>
        <mxCell id="8KJiEk0ww90a6QA8ULXF-8" value="Flutter Bundle" style="whiteSpace=wrap;html=1;fillColor=#006D77;fontColor=#FFFFFF;" vertex="1" parent="x9FaRGgshdTX-bnKY5PL-1">
          <mxGeometry x="390" y="40" width="120" height="60" as="geometry" />
        </mxCell>
        <mxCell id="8KJiEk0ww90a6QA8ULXF-17" value="" style="rounded=0;whiteSpace=wrap;html=1;fillColor=#ffe6cc;strokeColor=#d79b00;" vertex="1" parent="x9FaRGgshdTX-bnKY5PL-1">
          <mxGeometry x="70" y="310" width="280" height="110" as="geometry" />
        </mxCell>
        <mxCell id="8KJiEk0ww90a6QA8ULXF-18" value="&lt;font style=&quot;font-size: 29px&quot;&gt;❓&lt;/font&gt;" style="rounded=0;whiteSpace=wrap;html=1;" vertex="1" parent="x9FaRGgshdTX-bnKY5PL-1">
          <mxGeometry x="390" y="309" width="120" height="110" as="geometry" />
        </mxCell>
        <mxCell id="8KJiEk0ww90a6QA8ULXF-19" value="" style="shape=doubleArrow;direction=south;whiteSpace=wrap;html=1;fillColor=none;" vertex="1" parent="x9FaRGgshdTX-bnKY5PL-1">
          <mxGeometry x="202.5" y="426" width="15" height="35" as="geometry" />
        </mxCell>
        <mxCell id="B07_-Uun-cKX34HKOmx0-1" value="" style="rounded=0;whiteSpace=wrap;html=1;fillColor=none;dashed=1;" vertex="1" parent="x9FaRGgshdTX-bnKY5PL-1">
          <mxGeometry x="60" y="190" width="300" height="80" as="geometry" />
        </mxCell>
        <mxCell id="B07_-Uun-cKX34HKOmx0-2" value="" style="shape=doubleArrow;direction=south;whiteSpace=wrap;html=1;fillColor=none;" vertex="1" parent="x9FaRGgshdTX-bnKY5PL-1">
          <mxGeometry x="202.5" y="274" width="15" height="35" as="geometry" />
        </mxCell>
        <mxCell id="TwUaU_bwHyMY4Lej0Qxo-0" value="JSI" style="text;html=1;strokeColor=none;fillColor=none;align=center;verticalAlign=middle;whiteSpace=wrap;rounded=0;" vertex="1" parent="x9FaRGgshdTX-bnKY5PL-1">
          <mxGeometry x="80" y="320" width="40" height="20" as="geometry" />
        </mxCell>
        <mxCell id="TwUaU_bwHyMY4Lej0Qxo-1" value="C/C++/Jni/java" style="rounded=0;whiteSpace=wrap;html=1;strokeColor=#000000;fillColor=none;" vertex="1" parent="x9FaRGgshdTX-bnKY5PL-1">
          <mxGeometry x="217.5" y="345" width="120" height="60" as="geometry" />
        </mxCell>
        <mxCell id="TwUaU_bwHyMY4Lej0Qxo-2" value="C/C++/Object-C" style="rounded=0;whiteSpace=wrap;html=1;strokeColor=#000000;fillColor=none;" vertex="1" parent="x9FaRGgshdTX-bnKY5PL-1">
          <mxGeometry x="85" y="345" width="117.5" height="60" as="geometry" />
        </mxCell>
      </root>
    </mxGraphModel>
  </diagram>
  <diagram id="hjtopL6CsBfBR1J5f7IC" name="第 3 页">
    <mxGraphModel dx="1426" dy="711" grid="1" gridSize="10" guides="1" tooltips="1" connect="1" arrows="1" fold="1" page="1" pageScale="1" pageWidth="1200" pageHeight="600" math="0" shadow="0">
      <root>
        <mxCell id="Xcs8l30UtsmU1XhOhAEq-0" />
        <mxCell id="Xcs8l30UtsmU1XhOhAEq-1" parent="Xcs8l30UtsmU1XhOhAEq-0" />
        <mxCell id="Xcs8l30UtsmU1XhOhAEq-11" value="" style="edgeStyle=orthogonalEdgeStyle;rounded=0;orthogonalLoop=1;jettySize=auto;html=1;" edge="1" parent="Xcs8l30UtsmU1XhOhAEq-1" source="Xcs8l30UtsmU1XhOhAEq-2" target="Xcs8l30UtsmU1XhOhAEq-4">
          <mxGeometry relative="1" as="geometry" />
        </mxCell>
        <mxCell id="Xcs8l30UtsmU1XhOhAEq-18" style="edgeStyle=orthogonalEdgeStyle;rounded=0;orthogonalLoop=1;jettySize=auto;html=1;entryX=-0.02;entryY=0.725;entryDx=0;entryDy=0;entryPerimeter=0;dashed=1;" edge="1" parent="Xcs8l30UtsmU1XhOhAEq-1" source="Xcs8l30UtsmU1XhOhAEq-2" target="Xcs8l30UtsmU1XhOhAEq-9">
          <mxGeometry relative="1" as="geometry">
            <mxPoint x="750" y="370" as="targetPoint" />
            <Array as="points">
              <mxPoint x="150" y="420" />
              <mxPoint x="820" y="420" />
              <mxPoint x="820" y="370" />
            </Array>
          </mxGeometry>
        </mxCell>
        <mxCell id="Xcs8l30UtsmU1XhOhAEq-2" value="VSCode" style="whiteSpace=wrap;html=1;aspect=fixed;fillColor=none;" vertex="1" parent="Xcs8l30UtsmU1XhOhAEq-1">
          <mxGeometry x="60" y="190" width="180" height="180" as="geometry" />
        </mxCell>
        <mxCell id="Xcs8l30UtsmU1XhOhAEq-10" style="edgeStyle=orthogonalEdgeStyle;rounded=0;orthogonalLoop=1;jettySize=auto;html=1;entryX=0.5;entryY=0;entryDx=0;entryDy=0;" edge="1" parent="Xcs8l30UtsmU1XhOhAEq-1" source="Xcs8l30UtsmU1XhOhAEq-3" target="Xcs8l30UtsmU1XhOhAEq-5">
          <mxGeometry relative="1" as="geometry" />
        </mxCell>
        <mxCell id="Xcs8l30UtsmU1XhOhAEq-3" value="仓库" style="ellipse;whiteSpace=wrap;html=1;strokeColor=#000000;fillColor=none;" vertex="1" parent="Xcs8l30UtsmU1XhOhAEq-1">
          <mxGeometry x="430" y="110" width="120" height="80" as="geometry" />
        </mxCell>
        <mxCell id="Xcs8l30UtsmU1XhOhAEq-12" value="" style="edgeStyle=orthogonalEdgeStyle;rounded=0;orthogonalLoop=1;jettySize=auto;html=1;" edge="1" parent="Xcs8l30UtsmU1XhOhAEq-1" source="Xcs8l30UtsmU1XhOhAEq-4" target="Xcs8l30UtsmU1XhOhAEq-5">
          <mxGeometry relative="1" as="geometry" />
        </mxCell>
        <mxCell id="Xcs8l30UtsmU1XhOhAEq-4" value="启动debug" style="rounded=0;whiteSpace=wrap;html=1;strokeColor=#000000;fillColor=none;" vertex="1" parent="Xcs8l30UtsmU1XhOhAEq-1">
          <mxGeometry x="270" y="250" width="120" height="60" as="geometry" />
        </mxCell>
        <mxCell id="Xcs8l30UtsmU1XhOhAEq-13" value="" style="edgeStyle=orthogonalEdgeStyle;rounded=0;orthogonalLoop=1;jettySize=auto;html=1;" edge="1" parent="Xcs8l30UtsmU1XhOhAEq-1" source="Xcs8l30UtsmU1XhOhAEq-5" target="Xcs8l30UtsmU1XhOhAEq-6">
          <mxGeometry relative="1" as="geometry" />
        </mxCell>
        <mxCell id="Xcs8l30UtsmU1XhOhAEq-5" value="下载工程" style="rounded=0;whiteSpace=wrap;html=1;strokeColor=#000000;fillColor=none;" vertex="1" parent="Xcs8l30UtsmU1XhOhAEq-1">
          <mxGeometry x="430" y="250" width="120" height="60" as="geometry" />
        </mxCell>
        <mxCell id="Xcs8l30UtsmU1XhOhAEq-14" value="" style="edgeStyle=orthogonalEdgeStyle;rounded=0;orthogonalLoop=1;jettySize=auto;html=1;" edge="1" parent="Xcs8l30UtsmU1XhOhAEq-1" source="Xcs8l30UtsmU1XhOhAEq-6" target="Xcs8l30UtsmU1XhOhAEq-7">
          <mxGeometry relative="1" as="geometry" />
        </mxCell>
        <mxCell id="Xcs8l30UtsmU1XhOhAEq-6" value="初始化工程配置依赖" style="rounded=0;whiteSpace=wrap;html=1;strokeColor=#000000;fillColor=none;" vertex="1" parent="Xcs8l30UtsmU1XhOhAEq-1">
          <mxGeometry x="600" y="250" width="120" height="60" as="geometry" />
        </mxCell>
        <mxCell id="Xcs8l30UtsmU1XhOhAEq-15" value="" style="edgeStyle=orthogonalEdgeStyle;rounded=0;orthogonalLoop=1;jettySize=auto;html=1;" edge="1" parent="Xcs8l30UtsmU1XhOhAEq-1" source="Xcs8l30UtsmU1XhOhAEq-7" target="Xcs8l30UtsmU1XhOhAEq-9">
          <mxGeometry relative="1" as="geometry" />
        </mxCell>
        <mxCell id="Xcs8l30UtsmU1XhOhAEq-7" value="启动模拟器" style="rounded=0;whiteSpace=wrap;html=1;strokeColor=#000000;fillColor=none;" vertex="1" parent="Xcs8l30UtsmU1XhOhAEq-1">
          <mxGeometry x="760" y="250" width="120" height="60" as="geometry" />
        </mxCell>
        <mxCell id="Xcs8l30UtsmU1XhOhAEq-9" value="" style="html=1;verticalLabelPosition=bottom;labelBackgroundColor=#ffffff;verticalAlign=top;shadow=0;dashed=0;strokeWidth=1;shape=mxgraph.ios7.misc.iphone;strokeColor=#c0c0c0;fillColor=none;" vertex="1" parent="Xcs8l30UtsmU1XhOhAEq-1">
          <mxGeometry x="950" y="80" width="200" height="400" as="geometry" />
        </mxCell>
        <mxCell id="Xcs8l30UtsmU1XhOhAEq-17" value="微容器" style="rounded=0;whiteSpace=wrap;html=1;strokeColor=#000000;fillColor=none;" vertex="1" parent="Xcs8l30UtsmU1XhOhAEq-1">
          <mxGeometry x="970" y="150" width="160" height="260" as="geometry" />
        </mxCell>
        <mxCell id="Xcs8l30UtsmU1XhOhAEq-19" value="Hot reload" style="text;html=1;align=center;verticalAlign=middle;resizable=0;points=[];autosize=1;strokeColor=none;" vertex="1" parent="Xcs8l30UtsmU1XhOhAEq-1">
          <mxGeometry x="415" y="397" width="70" height="20" as="geometry" />
        </mxCell>
      </root>
    </mxGraphModel>
  </diagram>
</mxfile>
